<?xml version="1.0" encoding="utf-8"?>
<!-- Generator: Adobe Illustrator 22.1.0, SVG Export Plug-In . SVG Version: 6.00 Build 0)  -->
<svg version="1.1" id="Layer_1" xmlns="http://www.w3.org/2000/svg" xmlns:xlink="http://www.w3.org/1999/xlink" x="0px" y="0px"
	 viewBox="0 0 222 487" style="enable-background:new 0 0 222 487;" xml:space="preserve">
<style type="text/css">
	.st0{fill:none;stroke:#000000;stroke-width:4;stroke-miterlimit:10;}
</style>
<g id="head">
	<path d="M112,36c25.4,0,46,20.6,46,46s-20.6,46-46,46s-46-20.6-46-46S86.6,36,112,36 M112,32c-27.6,0-50,22.4-50,50s22.4,50,50,50
		s50-22.4,50-50S139.6,32,112,32L112,32z"/>
</g>
<g id="body">
	<line class="st0" x1="112" y1="129" x2="112" y2="338"/>
</g>
<line id="left-arm" class="st0" x1="24" y1="170" x2="112" y2="238"/>
<line id="right-arm" class="st0" x1="112.3" y1="238.3" x2="199.7" y2="169.7"/>
<line id="right-leg" class="st0" x1="113.2" y1="334.7" x2="189.8" y2="467.3"/>
<line id="left-leg" class="st0" x1="110.8" y1="334.7" x2="34.2" y2="467.3"/>
<line id="left-foot" class="st0" x1="10" y1="448" x2="35" y2="467"/>
<line id="right-foot" class="st0" x1="213.9" y1="447.8" x2="189.1" y2="467.2"/>
</svg>
